<?xml version="1.0" encoding="UTF-8"?>
<svg id="Layer_2" data-name="Layer 2" xmlns="http://www.w3.org/2000/svg" xmlns:xlink="http://www.w3.org/1999/xlink" viewBox="0 0 279.69 279.69">
  <defs>
    <style>
      .cls-1 {
        fill: url(#linear-gradient);
      }

      .cls-1, .cls-2, .cls-3, .cls-4, .cls-5, .cls-6, .cls-7 {
        stroke-width: 0px;
      }

      .cls-8 {
        fill: #dad0b5;
        stroke: #dad0b5;
        stroke-miterlimit: 10;
      }

      .cls-9 {
        stroke: #404146;
      }

      .cls-9, .cls-10, .cls-11 {
        fill: none;
        stroke-linecap: round;
        stroke-linejoin: round;
        stroke-width: .5px;
      }

      .cls-10 {
        stroke: #171720;
      }

      .cls-11 {
        stroke: #414042;
      }

      .cls-2 {
        fill: url(#linear-gradient-4);
      }

      .cls-3 {
        fill: url(#linear-gradient-2);
      }

      .cls-4 {
        fill: url(#linear-gradient-3);
      }

      .cls-5 {
        fill: #414042;
      }

      .cls-6 {
        fill: #404146;
      }

      .cls-7 {
        fill: #17161f;
      }
    </style>
    <linearGradient id="linear-gradient" x1="186.13" y1="118.24" x2="250.57" y2="182.69" gradientUnits="userSpaceOnUse">
      <stop offset="0" stop-color="#c5c4bf"/>
      <stop offset="0" stop-color="#c0bfbb"/>
      <stop offset="0" stop-color="#c1bfbb"/>
      <stop offset="0" stop-color="#c3c1bd"/>
      <stop offset=".16" stop-color="#bfbdb9" stop-opacity=".99"/>
      <stop offset=".31" stop-color="#b4b2ae" stop-opacity=".97"/>
      <stop offset=".46" stop-color="#a2a09d" stop-opacity=".94"/>
      <stop offset=".61" stop-color="#898684" stop-opacity=".89"/>
      <stop offset=".76" stop-color="#686563" stop-opacity=".83"/>
      <stop offset=".91" stop-color="#403d3d" stop-opacity=".76"/>
      <stop offset="1" stop-color="#231f20" stop-opacity=".7"/>
    </linearGradient>
    <linearGradient id="linear-gradient-2" x1="95.1" y1="155.65" x2="159.04" y2="219.59" xlink:href="#linear-gradient"/>
    <linearGradient id="linear-gradient-3" x1="128.03" y1="79.61" x2="192.16" y2="143.74" xlink:href="#linear-gradient"/>
    <linearGradient id="linear-gradient-4" x1="152.98" y1="194.93" x2="217.42" y2="259.37" xlink:href="#linear-gradient"/>
  </defs>
  <g id="Layer_1-2" data-name="Layer 1">
    <g>
      <g>
        <path class="cls-1" d="m230.65,136.3c0,20.49-6.78,39.39-18.22,54.57l-.12-.09-72.57-54.83,18.25-88.65c41.46,8.41,72.66,45.07,72.66,89Z"/>
        <path class="cls-3" d="m121.65,223.83l-2.32.96c-40.27-9.3-70.3-45.38-70.3-88.49,0-20.46,6.83-39.57,18.48-54.92l72.23,54.57-18.09,87.88Z"/>
        <path class="cls-5" d="m160.17,10.62l-32.32-.76s-25.2,22.88-71.01,27.97l-27.57,32.57s1.89,41.83-18.6,68.38l4.66,37.03s37.96,22.36,45.18,63.35l.43,1.88,37.45,16.79s44.55-12.48,74.9,3.45l34.87-14.92s12.01-42.04,49.95-59.27l10.91-36.04s-24.2-41.33-17.14-76.69l-20.37-29.63s-45.77-4.6-71.34-34.11Zm-32.71-5.08l33.36.79c26.4,30.51,73.63,35.27,73.63,35.27l21.02,30.62c-7.28,36.56,17.69,79.29,17.69,79.29l-11.25,37.25c-39.16,17.82-51.56,61.28-51.56,61.28l-35.99,15.42c-31.32-16.47-77.3-3.56-77.3-3.56l-38.65-17.36-.45-1.94c-7.45-42.38-46.63-65.5-46.63-65.5l-4.81-38.28c21.15-27.45,19.2-70.69,19.2-70.69l28.45-33.67C101.45,29.19,127.46,5.54,127.46,5.54Z"/>
        <path class="cls-6" d="m279.44,139.85c0,77.09-62.5,139.59-139.6,139.59S.25,216.94.25,139.85,62.74.25,139.84.25s139.6,62.5,139.6,139.6Zm-182.38,122.05s45.98-12.91,77.3,3.56l35.99-15.42s12.4-43.46,51.56-61.28l11.25-37.25s-24.97-42.73-17.69-79.29l-21.02-30.62s-47.23-4.76-73.63-35.27l-33.36-.79s-26.01,23.65-73.29,28.92l-28.45,33.67s1.95,43.24-19.2,70.69l4.81,38.28s39.18,23.12,46.63,65.5l.45,1.94,38.65,17.36Z"/>
        <path class="cls-4" d="m139.74,135.95l-72.23-54.57c16.43-21.69,42.45-35.89,72.33-35.89,6.22,0,12.29.62,18.15,1.81l-18.25,88.65Z"/>
        <path class="cls-7" d="m157.99,47.3c-5.86-1.19-11.93-1.81-18.15-1.81-29.88,0-55.9,14.2-72.33,35.89-11.65,15.35-18.48,34.46-18.48,54.92,0,43.11,30.03,79.19,70.3,88.49,6.59,1.52,13.46,2.32,20.51,2.32,29.67,0,56.02-14.23,72.59-36.24,11.44-15.18,18.22-34.08,18.22-54.57,0-43.93-31.2-80.59-72.66-89Zm-30.14-37.44l32.32.76c25.57,29.51,71.34,34.11,71.34,34.11l20.37,29.63c-7.06,35.36,17.14,76.69,17.14,76.69l-10.91,36.04c-37.94,17.23-49.95,59.27-49.95,59.27l-34.87,14.92c-30.35-15.93-74.9-3.45-74.9-3.45l-37.45-16.79-.43-1.88c-7.22-40.99-45.18-63.35-45.18-63.35l-4.66-37.03c20.49-26.55,18.6-68.38,18.6-68.38l27.57-32.57c45.81-5.09,71.01-27.97,71.01-27.97Z"/>
        <path class="cls-2" d="m212.43,190.87c-16.57,22.01-42.92,36.24-72.59,36.24-7.05,0-13.92-.8-20.51-2.32l2.32-.96,18.09-87.88,72.57,54.83.12.09Z"/>
      </g>
      <g>
        <path class="cls-10" d="m157.99,47.3c41.46,8.41,72.66,45.07,72.66,89,0,20.49-6.78,39.39-18.22,54.57-16.57,22.01-42.92,36.24-72.59,36.24-7.05,0-13.92-.8-20.51-2.32-40.27-9.3-70.3-45.38-70.3-88.49,0-20.46,6.83-39.57,18.48-54.92,16.43-21.69,42.45-35.89,72.33-35.89,6.22,0,12.29.62,18.15,1.81Z"/>
        <path class="cls-9" d="m279.44,139.85c0,77.09-62.5,139.59-139.6,139.59S.25,216.94.25,139.85,62.74.25,139.84.25s139.6,62.5,139.6,139.6Z"/>
        <path class="cls-10" d="m60.94,241.04l37.45,16.79s44.55-12.48,74.9,3.45l34.87-14.92s12.01-42.04,49.95-59.27l10.91-36.04s-24.2-41.33-17.14-76.69l-20.37-29.63s-45.77-4.6-71.34-34.11l-32.32-.76s-25.2,22.88-71.01,27.97l-27.57,32.57s1.89,41.83-18.6,68.38l4.66,37.03s37.96,22.36,45.18,63.35l.43,1.88Z"/>
        <path class="cls-11" d="m58.41,244.54l38.65,17.36s45.98-12.91,77.3,3.56l35.99-15.42s12.4-43.46,51.56-61.28l11.25-37.25s-24.97-42.73-17.69-79.29l-21.02-30.62s-47.23-4.76-73.63-35.27l-33.36-.79s-26.01,23.65-73.29,28.92l-28.45,33.67s1.95,43.24-19.2,70.69l4.81,38.28s39.18,23.12,46.63,65.5l.45,1.94Z"/>
      </g>
    </g>
    <circle class="cls-8" cx="144.13" cy="28.74" r="8.75"/>
  </g>
</svg>